<svg width="105" height="25" viewBox="0 0 105 25" fill="none" xmlns="http://www.w3.org/2000/svg">
<path d="M0 23.9999V1.72993H6.834C11.7753 1.72993 14.246 3.6566 14.246 7.50993C14.246 8.7566 13.9287 9.83327 13.294 10.7399C12.6593 11.6466 11.798 12.2133 10.71 12.4399C11.9793 12.6213 12.9653 13.1766 13.668 14.1059C14.3933 15.0126 14.7673 16.2026 14.79 17.6759C14.79 21.8919 12.036 23.9999 6.528 23.9999H0ZM7.038 20.9399C8.534 20.9399 9.59933 20.6113 10.234 19.9539C10.8687 19.2966 11.186 18.4239 11.186 17.3359C11.186 16.2253 10.8347 15.4206 10.132 14.9219C9.452 14.4233 8.364 14.1739 6.868 14.1739H3.536V20.9399H7.038ZM10.778 7.78193C10.778 5.78727 9.54267 4.78994 7.072 4.78994H3.536V11.1139H6.8C9.452 11.1139 10.778 10.0033 10.778 7.78193Z" fill="#091841"/>
<path d="M17.136 15.9419C17.136 13.1993 17.748 11.1253 18.972 9.71993C20.196 8.29193 21.896 7.57794 24.072 7.57794C26.248 7.57794 27.9253 8.22393 29.104 9.51593C30.3053 10.7853 30.9287 12.6553 30.974 15.1259L30.838 17.6419H20.91C21.114 20.0899 22.338 21.3139 24.582 21.3139C26.146 21.3139 27.8007 21.0306 29.546 20.4639L30.26 23.4219C29.5347 23.6713 28.594 23.8866 27.438 24.0679C26.282 24.2719 25.33 24.3739 24.582 24.3739C19.618 24.3739 17.136 21.5633 17.136 15.9419ZM24.208 10.7399C23.1427 10.7399 22.338 11.0573 21.794 11.6919C21.2727 12.3039 20.978 13.3353 20.91 14.7859H27.2C27.2 12.0886 26.2027 10.7399 24.208 10.7399Z" fill="#091841"/>
<path d="M33.252 23.2519L34 20.1579C36.1533 20.8379 37.8647 21.1779 39.134 21.1779C40.4033 21.1779 41.2647 21.0533 41.718 20.8039C42.1713 20.5773 42.398 20.1693 42.398 19.5799C42.398 18.9906 42.194 18.5713 41.786 18.3219C41.378 18.0726 40.6073 17.8119 39.474 17.5399C37.23 16.9959 35.666 16.3953 34.782 15.7379C33.898 15.0579 33.456 13.9586 33.456 12.4399C33.456 9.1986 35.5413 7.57794 39.712 7.57794C41.5027 7.57794 43.5767 7.8726 45.934 8.46194L45.288 11.6919C43.044 11.0573 41.31 10.7399 40.086 10.7399C38.862 10.7399 38.0347 10.8533 37.604 11.0799C37.196 11.2839 36.992 11.6466 36.992 12.1679C36.992 12.6893 37.196 13.0746 37.604 13.3239C38.0347 13.5506 39.1227 13.9019 40.868 14.3779C42.6133 14.8539 43.894 15.4093 44.71 16.0439C45.526 16.6559 45.934 17.7099 45.934 19.2059C45.934 22.6286 43.826 24.3399 39.61 24.3399C37.638 24.3399 35.5187 23.9773 33.252 23.2519Z" fill="#091841"/>
<path d="M52.054 7.84993L52.122 8.83593C53.958 7.99727 55.3973 7.57794 56.44 7.57794C58.276 7.57794 59.6247 8.12193 60.486 9.20993C61.37 10.2753 61.812 11.9526 61.812 14.2419V23.9999H58.31V14.3439C58.31 13.2559 58.1173 12.4059 57.732 11.7939C57.3467 11.1819 56.746 10.8759 55.93 10.8759C55.114 10.8759 53.856 11.2726 52.156 12.0659V23.9999H48.654V7.84993H52.054Z" fill="#091841"/>
<path d="M64.464 23.9999V20.8719H69.53V10.9779H64.736V7.84993H73.032V20.8719H77.826V23.9999H64.464ZM71.094 5.50393C70.414 5.50393 69.87 5.29993 69.462 4.89193C69.0767 4.46127 68.884 3.90593 68.884 3.22593C68.884 2.54593 69.088 2.00193 69.496 1.59393C69.904 1.18593 70.448 0.981934 71.128 0.981934C71.8307 0.981934 72.3633 1.18593 72.726 1.59393C73.1113 1.97927 73.304 2.52327 73.304 3.22593C73.304 3.9286 73.1113 4.48393 72.726 4.89193C72.3407 5.29993 71.7967 5.50393 71.094 5.50393Z" fill="#091841"/>
<path d="M80.648 23.9999V1.38993H84.15V14.3439L86.394 14.1059C87.6633 12.4739 88.774 10.7059 89.726 8.80193L90.202 7.84993H94.01C92.582 10.8646 90.9953 13.3806 89.25 15.3979C90.7007 17.4606 92.1627 19.8973 93.636 22.7079L94.316 23.9999H90.338C89.2273 21.5973 87.958 19.2966 86.53 17.0979L84.15 17.3359V23.9999H80.648Z" fill="#091841"/>
<path d="M99.62 23.9999V19.0699H104.55V23.9999H99.62Z" fill="#091841"/>
</svg>
