<svg width="48" height="48" viewBox="0 0 48 48" fill="none" xmlns="http://www.w3.org/2000/svg">
<path d="M43.7812 2.65784H4.21875C1.89253 2.65784 0 4.55037 0 6.87659V32.9647C0 35.2909 1.89253 37.1834 4.21875 37.1834H18.4213V42.5287H16.3038C15.5272 42.5287 14.8975 43.1583 14.8975 43.9349C14.8975 44.7116 15.5272 45.3412 16.3038 45.3412H31.6963C32.4729 45.3412 33.1026 44.7116 33.1026 43.9349C33.1026 43.1583 32.4729 42.5287 31.6963 42.5287H29.5788V37.1834H43.7812C46.1075 37.1834 48 35.2909 48 32.9647V6.87659C48 4.55037 46.1075 2.65784 43.7812 2.65784ZM26.7662 42.5288H21.2338V37.1835H26.7662V42.5288ZM45.1875 32.9648C45.1875 33.7402 44.5567 34.371 43.7812 34.371H4.21875C3.44334 34.371 2.8125 33.7402 2.8125 32.9648V30.827H45.1875V32.9648ZM45.1875 28.0145H2.8125V6.87659C2.8125 6.10118 3.44334 5.47034 4.21875 5.47034H43.7812C44.5567 5.47034 45.1875 6.10118 45.1875 6.87659V28.0145Z" fill="#6A6F79"/>
<path d="M17.0885 20.333L13.2792 17.7323L17.0885 15.1315C17.73 14.6936 17.895 13.8187 17.4571 13.1772C17.0192 12.5359 16.1442 12.3709 15.5027 12.8087L9.99222 16.5708C9.60841 16.8328 9.37891 17.2675 9.37891 17.7322C9.37891 18.1968 9.60841 18.6317 9.99222 18.8937L15.5027 22.6558C15.7453 22.8215 16.0213 22.9008 16.2944 22.9008C16.7434 22.9008 17.1848 22.6861 17.4571 22.2873C17.895 21.6459 17.73 20.7709 17.0885 20.333Z" fill="#00D664"/>
<path d="M38.0106 16.5715L32.5001 12.8094C31.8587 12.3716 30.9838 12.5366 30.5458 13.1779C30.1079 13.8193 30.2729 14.6943 30.9143 15.1322L34.7236 17.7329L30.9143 20.3335C30.2729 20.7714 30.1079 21.6463 30.5458 22.2878C30.8181 22.6867 31.2593 22.9013 31.7085 22.9013C31.9815 22.9013 32.2575 22.8219 32.5001 22.6563L38.0106 18.8942C38.3944 18.6322 38.6239 18.1975 38.6239 17.7328C38.6239 17.2682 38.3943 16.8336 38.0106 16.5715Z" fill="#00D664"/>
<path d="M27.5105 11.4853C26.8336 11.1048 25.9762 11.345 25.5955 12.0222L19.9501 22.0649C19.5697 22.7418 19.8099 23.5992 20.487 23.9798C20.7049 24.1023 20.9414 24.1604 21.1748 24.1604C21.6664 24.1604 22.1438 23.9022 22.4019 23.4431L28.0473 13.4003C28.4279 12.7233 28.1875 11.866 27.5105 11.4853Z" fill="#00D664"/>
</svg>
