<svg width="48" height="48" viewBox="0 0 48 48" fill="none" xmlns="http://www.w3.org/2000/svg">
<path d="M33.043 20.625C33.043 19.5894 32.2035 18.75 31.168 18.75H11.8555C10.8199 18.75 9.98047 19.5894 9.98047 20.625C9.98047 21.6606 10.8199 22.5 11.8555 22.5H31.168C32.2035 22.5 33.043 21.6606 33.043 20.625Z" fill="#6A6F79"/>
<path d="M11.8555 26.25C10.8199 26.25 9.98047 27.0894 9.98047 28.125C9.98047 29.1606 10.8199 30 11.8555 30H23.5846C24.6202 30 25.4596 29.1606 25.4596 28.125C25.4596 27.0894 24.6202 26.25 23.5846 26.25H11.8555Z" fill="#6A6F79"/>
<path d="M16.263 44.25H9.99219C7.92444 44.25 6.24219 42.5677 6.24219 40.5V7.5C6.24219 5.43225 7.92444 3.75 9.99219 3.75H33.0443C35.112 3.75 36.7943 5.43225 36.7943 7.5V19.0312C36.7943 20.0668 37.6337 20.9062 38.6693 20.9062C39.7048 20.9062 40.5443 20.0668 40.5443 19.0312V7.5C40.5443 3.3645 37.1798 0 33.0443 0H9.99219C5.85669 0 2.49219 3.3645 2.49219 7.5V40.5C2.49219 44.6355 5.85669 48 9.99219 48H16.263C17.2986 48 18.138 47.1606 18.138 46.125C18.138 45.0894 17.2986 44.25 16.263 44.25Z" fill="#6A6F79"/>
<path d="M43.8642 27.1471C41.6711 24.9539 38.1026 24.9538 35.9108 27.1456L25.6167 37.4168C25.3981 37.635 25.2369 37.9037 25.1471 38.1992L22.9052 45.5796C22.7065 46.234 22.8796 46.9445 23.3572 47.434C23.7149 47.8007 24.2009 47.9997 24.6994 47.9997C24.8662 47.9997 25.0346 47.9774 25.1998 47.9315L32.7678 45.8352C33.0792 45.7489 33.3631 45.5837 33.5919 45.3553L43.8643 35.1021C46.0575 32.9089 46.0575 29.3404 43.8642 27.1471ZM31.2916 42.3529L27.4842 43.4076L28.5985 39.7393L35.5443 32.8088L38.1965 35.461L31.2916 42.3529ZM41.214 32.4494L40.8507 32.8119L38.199 30.1602L38.5611 29.7989C39.2922 29.0678 40.4817 29.0678 41.2127 29.7989C41.9438 30.5299 41.9438 31.7194 41.214 32.4494Z" fill="#00D664"/>
<path d="M31.168 11.25H11.8555C10.8199 11.25 9.98047 12.0894 9.98047 13.125C9.98047 14.1606 10.8199 15 11.8555 15H31.168C32.2035 15 33.043 14.1606 33.043 13.125C33.043 12.0894 32.2035 11.25 31.168 11.25Z" fill="#6A6F79"/>
</svg>
