<svg width="48" height="48" viewBox="0 0 48 48" fill="none" xmlns="http://www.w3.org/2000/svg">
<g clip-path="url(#clip0_3_446)">
<path d="M45.1531 24.2302C44.7512 17.1 40.737 10.6818 34.5438 7.125H39.8044C40.3849 8.76178 41.948 9.9375 43.7812 9.9375C46.1075 9.9375 48 8.04497 48 5.71875C48 3.39253 46.1075 1.5 43.7812 1.5C41.948 1.5 40.3849 2.67572 39.8044 4.3125H28.2188V1.5H19.7812V4.3125H8.19563C7.61513 2.67572 6.05203 1.5 4.21875 1.5C1.89253 1.5 0 3.39253 0 5.71875C0 8.04497 1.89253 9.9375 4.21875 9.9375C6.05203 9.9375 7.61513 8.76178 8.19563 7.12406H13.4563C7.26628 10.6798 3.24891 17.0961 2.84691 24.2302C1.19231 24.8009 0 26.3727 0 28.2188C0 30.545 1.89253 32.4375 4.21875 32.4375C6.54497 32.4375 8.4375 30.545 8.4375 28.2188C8.4375 26.3995 7.27997 24.8456 5.66278 24.2547C6.17513 16.2609 11.9783 9.45413 19.7812 7.61419V9.9375H28.2188V7.61409C36.0217 9.45403 41.8249 16.2608 42.3372 24.2546C40.72 24.8456 39.5625 26.3995 39.5625 28.2188C39.5625 30.545 41.455 32.4375 43.7812 32.4375C46.1075 32.4375 48 30.545 48 28.2188C48 26.3727 46.8077 24.8009 45.1531 24.2302ZM4.21875 29.625C3.44334 29.625 2.8125 28.9942 2.8125 28.2188C2.8125 27.4433 3.44334 26.8125 4.21875 26.8125C4.99416 26.8125 5.625 27.4433 5.625 28.2188C5.625 28.9942 4.99416 29.625 4.21875 29.625ZM43.7812 4.3125C44.5567 4.3125 45.1875 4.94334 45.1875 5.71875C45.1875 6.49416 44.5567 7.125 43.7812 7.125C43.0058 7.125 42.375 6.49416 42.375 5.71875C42.375 4.94334 43.0058 4.3125 43.7812 4.3125ZM4.21875 7.125C3.44334 7.125 2.8125 6.49416 2.8125 5.71875C2.8125 4.94334 3.44334 4.3125 4.21875 4.3125C4.99416 4.3125 5.625 4.94334 5.625 5.71875C5.625 6.49416 4.99416 7.125 4.21875 7.125ZM25.4062 7.125H22.5938V4.3125H25.4062V7.125ZM43.7812 29.625C43.0058 29.625 42.375 28.9942 42.375 28.2188C42.375 27.4433 43.0058 26.8125 43.7812 26.8125C44.5567 26.8125 45.1875 27.4433 45.1875 28.2188C45.1875 28.9942 44.5567 29.625 43.7812 29.625Z" fill="#00D664"/>
<path d="M24.0015 11.4219L13.9609 28.1561L18.9137 38.0614H14.1577V46.4989H33.8452V38.0614H29.0893L34.042 28.1561L24.0015 11.4219ZM31.0327 43.6864H16.9702V40.8739H31.0327V43.6864ZM22.058 38.0614L17.167 28.2793L22.5952 19.2322V29.6239H25.4077V19.2322L30.8359 28.2793L25.9449 38.0614H22.058Z" fill="#6A6F79"/>
</g>
<defs>
<clipPath id="clip0_3_446">
<rect width="48" height="48" fill="white"/>
</clipPath>
</defs>
</svg>
