<svg width="48" height="48" viewBox="0 0 48 48" fill="none" xmlns="http://www.w3.org/2000/svg">
<g clip-path="url(#clip0_3_435)">
<path d="M46.5907 39.9547H43.7538V21.1917C43.7538 20.4147 43.1229 19.7847 42.3445 19.7847H34.5633C33.7849 19.7847 33.154 20.4147 33.154 21.1917V39.9547H29.3V15.6175C29.3 14.8404 28.669 14.2105 27.8907 14.2105H20.1094C19.3311 14.2105 18.7001 14.8404 18.7001 15.6175V39.9547H14.8461V19.7028C14.8461 18.9258 14.2151 18.2958 13.4368 18.2958H5.65546C4.87714 18.2958 4.24617 18.9258 4.24617 19.7028V39.9547H1.40929C0.630969 39.9547 0 40.5847 0 41.3617C0 42.1387 0.630969 42.7686 1.40929 42.7686H46.5907C47.369 42.7686 48 42.1387 48 41.3617C48 40.5847 47.369 39.9547 46.5907 39.9547ZM7.06475 39.9547V21.1097H12.0275V39.9547H7.06475ZM21.5186 39.9547V17.0244H26.4814V39.9547H21.5186ZM35.9726 39.9547V22.5986H40.9353V39.9547H35.9726Z" fill="#6A6F79"/>
<path d="M46.9699 10.5868C47.0166 9.99874 46.6739 9.2767 45.8891 9.09408L41.3433 7.98915C40.5879 7.80503 39.8273 8.26885 39.6439 9.02392C39.4603 9.77898 39.9235 10.5399 40.6786 10.7233L41.9644 11.0359L38.3196 13.285L24.5 5.41735C24.1027 5.19102 23.6198 5.17198 23.2062 5.36642L9.46932 11.8142L2.90253 7.71592C2.24342 7.30425 1.37552 7.50535 0.964035 8.16455C0.552643 8.82366 0.753555 9.69156 1.41276 10.103L8.62909 14.6067C9.03401 14.8595 9.53957 14.8897 9.97179 14.6868L23.7416 8.22346L37.6525 16.1432C38.0145 16.333 38.519 16.4314 39.0875 16.1177L43.5058 13.3912L43.2116 14.7692C42.8878 16.6023 45.4827 17.1229 45.9634 15.357L46.9387 10.7896C46.9498 10.7257 46.9539 10.7347 46.9699 10.5868Z" fill="#00D664"/>
</g>
<defs>
<clipPath id="clip0_3_435">
<rect width="48" height="48" fill="white"/>
</clipPath>
</defs>
</svg>
