<svg width="48" height="48" viewBox="0 0 48 48" fill="none" xmlns="http://www.w3.org/2000/svg">
<g clip-path="url(#clip0_3_418)">
<path d="M19.7826 13.1406V18.9585L20.1945 19.3705C20.3261 19.502 23.4893 22.5947 29.6263 22.5947C35.7633 22.5947 38.9265 19.502 39.0581 19.3704L39.4701 18.9584V13.1405L42.2826 12.0155V19.7822H45.0951V10.8905L47.4753 9.93845L29.6263 2.79883L11.7773 9.93845L19.7826 13.1406ZM36.6576 17.7205C35.7623 18.3891 33.439 19.7822 29.6263 19.7822C25.8136 19.7822 23.4903 18.3891 22.5951 17.7205V14.2655L29.6263 17.078L36.6576 14.2655V17.7205ZM39.9023 9.93845L29.6263 14.0488L19.3503 9.93845L29.6263 5.82808L39.9023 9.93845Z" fill="#6A6F79"/>
<path d="M10.8402 12.2444L8.85147 10.2557L7.05222 12.0549C7.36422 6.906 11.6512 2.8125 16.8771 2.8125V0C10.0892 0 4.53297 5.37159 4.23428 12.0872L2.40269 10.2557L0.414062 12.2444L5.62712 17.4575L10.8402 12.2444Z" fill="#00D664"/>
<path d="M47.5881 32.9435L42.375 27.7305L37.1619 32.9435L39.1507 34.9323L40.9688 33.1142V35.3442C40.9688 40.772 36.5528 45.1879 31.125 45.1879V48.0004C38.1037 48.0004 43.7813 42.3228 43.7813 35.3442V33.1142L45.5994 34.9323L47.5881 32.9435Z" fill="#00D664"/>
<path d="M33.8451 39.4697V30.578L36.2253 29.626L18.3763 22.4863L0.527344 29.626L8.53256 32.8281V38.646L8.9445 39.058C9.07612 39.1895 12.2393 42.2822 18.3763 42.2822C24.5133 42.2822 27.6765 39.1895 27.8081 39.0579L28.2201 38.6459V32.828L31.0326 31.703V39.4697H33.8451ZM25.4076 37.408C24.5123 38.0766 22.189 39.4697 18.3763 39.4697C14.5636 39.4697 12.2403 38.0766 11.3451 37.408V33.953L18.3763 36.7655L25.4076 33.953V37.408ZM18.3763 33.7363L8.10028 29.626L18.3763 25.5156L28.6523 29.626L18.3763 33.7363Z" fill="#6A6F79"/>
</g>
<defs>
<clipPath id="clip0_3_418">
<rect width="48" height="48" fill="white"/>
</clipPath>
</defs>
</svg>
