<svg width="48" height="48" viewBox="0 0 48 48" fill="none" xmlns="http://www.w3.org/2000/svg">
<g clip-path="url(#clip0_3_401)">
<path d="M41.9064 18.93L26.0007 3.02433C24.3565 1.37996 21.6806 1.37986 20.0362 3.02433C18.5579 4.50248 18.4306 6.75689 19.5222 8.36666L19.5001 8.47738C18.3534 14.2116 15.5616 19.4282 11.4264 23.5633L4.13087 30.8588C2.48256 32.5072 2.48228 35.175 4.13087 36.8234L8.10717 40.7997C9.75539 42.448 12.4233 42.4481 14.0717 40.7997L15.0658 39.8056L22.0245 46.7643C23.6728 48.4127 26.3406 48.4128 27.989 46.7643C29.6334 45.1199 29.6334 42.4442 27.989 40.7998L25.0067 37.8175L26.0008 36.8234C27.6491 35.1752 27.6493 32.5074 26.0008 30.8589L25.3253 30.1833C28.6486 27.8565 32.4229 26.2366 36.4535 25.4305L36.5656 25.408C38.2112 26.5191 40.4603 26.3405 41.9064 24.8944H41.9065C43.5507 23.2501 43.5507 20.5745 41.9064 18.93ZM12.0836 38.8116C11.5342 39.3608 10.6447 39.3609 10.0953 38.8115L6.11902 34.8352C5.56955 34.2856 5.56955 33.3965 6.11902 32.847L13.0776 25.8883L19.0422 31.8529C18.3613 32.5337 12.7812 38.1139 12.0836 38.8116ZM26.0007 42.7879C26.5488 43.3359 26.5488 44.2279 26.0007 44.776C25.4527 45.3241 24.5606 45.3241 24.0126 44.776L17.0539 37.8173L19.0422 35.8292L26.0007 42.7879ZM21.0303 33.841C21.4529 33.4184 22.0856 32.7711 23.084 31.9183L24.0126 32.847C24.562 33.3965 24.562 34.2856 24.0126 34.8352L23.0185 35.8293L21.0303 33.841ZM21.09 29.9245L15.0058 23.8404C18.2664 20.0755 20.6013 15.6312 21.8505 10.8031L34.1273 23.0799C29.2991 24.329 24.855 26.6639 21.09 29.9245ZM39.918 22.9061C39.3685 23.4555 38.4793 23.4555 37.9298 22.9061L22.0243 7.00064C21.4749 6.45107 21.4749 5.56195 22.0243 5.01248C22.5738 4.46302 23.4631 4.46302 24.0126 5.01248L39.918 20.9179C40.4661 21.466 40.4661 22.3579 39.918 22.9061Z" fill="#6A6F79"/>
<path d="M14.0717 30.859C13.5227 30.31 12.6325 30.31 12.0835 30.859L10.0953 32.8472C9.54634 33.3962 9.54634 34.2863 10.0953 34.8353C10.6442 35.3843 11.5346 35.3843 12.0835 34.8353L14.0717 32.8472C14.6207 32.2982 14.6207 31.408 14.0717 30.859Z" fill="#6A6F79"/>
<path d="M32.4527 0C31.6763 0 31.0469 0.629436 31.0469 1.40587V4.21762C31.0469 4.99405 31.6763 5.62349 32.4527 5.62349C33.2292 5.62349 33.8586 4.99405 33.8586 4.21762V1.40587C33.8586 0.629436 33.2292 0 32.4527 0Z" fill="#00D664"/>
<path d="M43.702 11.2461H40.8902C40.1138 11.2461 39.4844 11.8755 39.4844 12.652C39.4844 13.4284 40.1138 14.0578 40.8902 14.0578H43.702C44.4784 14.0578 45.1079 13.4284 45.1079 12.652C45.1079 11.8755 44.4783 11.2461 43.702 11.2461Z" fill="#00D664"/>
<path d="M41.884 3.22339C41.3351 2.6744 40.4449 2.6744 39.8959 3.22339L37.0841 6.03514C36.5351 6.58414 36.5351 7.47429 37.0841 8.02329C37.633 8.57229 38.5233 8.57238 39.0723 8.02329L41.884 5.21155C42.433 4.66255 42.433 3.77249 41.884 3.22339Z" fill="#00D664"/>
</g>
<defs>
<clipPath id="clip0_3_401">
<rect width="48" height="48" fill="white"/>
</clipPath>
</defs>
</svg>
